<svg xmlns="http://www.w3.org/2000/svg" xmlns:xlink="http://www.w3.org/1999/xlink" width="24" height="24" preserveAspectRatio="xMidYMid meet" viewBox="0 0 24 24" style="-ms-transform: rotate(360deg); -webkit-transform: rotate(360deg); transform: rotate(360deg);"><path d="M8 4a1 1 0 00-1 1v15l2.978-2.717a3 3 0 014.044 0L17 20V5a1 1 0 00-1-1H8zm0-2h8a3 3 0 013 3v15a2 2 0 01-3.348 1.477l-2.978-2.717a1 1 0 00-1.348 0l-2.978 2.717A2 2 0 015 20V5a3 3 0 013-3z" fill="white"/><rect x="0" y="0" width="24" height="24" fill="rgba(0, 0, 0, 0)" /></svg>