<?xml version="1.0" encoding="UTF-8" standalone="no"?>
<!-- Created with Inkscape (http://www.inkscape.org/) -->

<svg
   xmlns:dc="http://purl.org/dc/elements/1.1/"
   xmlns:cc="http://creativecommons.org/ns#"
   xmlns:rdf="http://www.w3.org/1999/02/22-rdf-syntax-ns#"
   xmlns:svg="http://www.w3.org/2000/svg"
   xmlns="http://www.w3.org/2000/svg"
   xmlns:sodipodi="http://sodipodi.sourceforge.net/DTD/sodipodi-0.dtd"
   xmlns:inkscape="http://www.inkscape.org/namespaces/inkscape"
   version="1.1"
   id="svg2"
   xml:space="preserve"
   width="100.7123"
   height="73.869759"
   viewBox="0 0 100.7123 73.869759"
   sodipodi:docname="investment.svg"
   inkscape:version="0.92.3 (2405546, 2018-03-11)"><metadata
     id="metadata8"><rdf:RDF><cc:Work
         rdf:about=""><dc:format>image/svg+xml</dc:format><dc:type
           rdf:resource="http://purl.org/dc/dcmitype/StillImage" /><dc:title></dc:title></cc:Work></rdf:RDF></metadata><defs
     id="defs6"><clipPath
       clipPathUnits="userSpaceOnUse"
       id="clipPath20"><path
         d="M 0,500 H 500 V 0 H 0 Z"
         id="path18"
         inkscape:connector-curvature="0" /></clipPath><clipPath
       clipPathUnits="userSpaceOnUse"
       id="clipPath328"><path
         d="M 0,500 H 500 V 0 H 0 Z"
         id="path326"
         inkscape:connector-curvature="0" /></clipPath><clipPath
       clipPathUnits="userSpaceOnUse"
       id="clipPath362"><path
         d="M 0,0 H 500 V 500 H 0 Z"
         id="path360"
         inkscape:connector-curvature="0" /></clipPath><clipPath
       clipPathUnits="userSpaceOnUse"
       id="clipPath702"><path
         d="M 0,500 H 500 V 0 H 0 Z"
         id="path700"
         inkscape:connector-curvature="0" /></clipPath></defs><sodipodi:namedview
     pagecolor="#ffffff"
     bordercolor="#666666"
     borderopacity="1"
     objecttolerance="10"
     gridtolerance="10"
     guidetolerance="10"
     inkscape:pageopacity="0"
     inkscape:pageshadow="2"
     inkscape:window-width="1890"
     inkscape:window-height="1052"
     id="namedview4"
     showgrid="false"
     fit-margin-top="0"
     fit-margin-left="0"
     fit-margin-right="0"
     fit-margin-bottom="0"
     inkscape:zoom="4.2194005"
     inkscape:cx="50.35615"
     inkscape:cy="36.934883"
     inkscape:window-x="30"
     inkscape:window-y="0"
     inkscape:window-maximized="1"
     inkscape:current-layer="g358" /><g
     id="g10"
     inkscape:groupmode="layer"
     inkscape:label="332003-PAO2FE-976"
     transform="matrix(1.3333333,0,0,-1.3333333,-285.2765,385.4715)"><g
       id="g356"><g
         id="g358"
         clip-path="url(#clipPath362)"><g
           id="g1751"
           transform="matrix(0.16035141,0,0,0.16035141,224.46883,204.84292)"
           style="stroke-width:6.23630333"><g
             transform="translate(377.1416,431.7363)"
             id="g364"
             style="stroke-width:6.23630333"><path
               inkscape:connector-curvature="0"
               id="path366"
               style="fill:#b68e62;fill-opacity:1;fill-rule:nonzero;stroke:none;stroke-width:6.23630333"
               d="m 0,0 c -8.215,12.623 -20.59,22.487 -34.725,27.682 -7.627,2.803 -15.744,4.237 -23.866,4.289 -2.688,0.017 -5.461,0.851 -8.071,0.797 -3.859,-0.081 -8.276,-2.536 -11.323,-4.724 -0.822,-0.589 13.43,-7.852 14.446,-8.394 3.614,-1.929 7.296,-3.732 11.036,-5.403 7.896,-3.529 16.052,-6.475 24.38,-8.808 C -18.918,2.862 -9.503,1.034 0,0" /></g><g
             transform="translate(308.9248,303.0601)"
             id="g368"
             style="stroke-width:6.23630333"><path
               inkscape:connector-curvature="0"
               id="path370"
               style="fill:#fbba84;fill-opacity:1;fill-rule:nonzero;stroke:none;stroke-width:6.23630333"
               d="m 0,0 c 3.212,-1.079 6.906,-2.118 9.83,-0.406 2.559,1.497 3.659,4.816 3.159,7.738 -0.5,2.922 -2.333,5.462 -4.49,7.496 -0.832,0.783 -1.771,2.056 -1.003,2.901 0.334,0.366 0.871,0.451 1.365,0.486 3.842,0.276 7.596,-1.112 11.428,-1.506 3.831,-0.394 8.339,0.627 10.051,4.078 1.359,2.74 0.428,6.171 -1.483,8.56 -1.91,2.389 -4.634,3.959 -7.292,5.473 2.842,0.396 5.793,0.833 8.177,2.43 2.384,1.598 4.007,4.721 2.956,7.391 -1.601,4.071 -7.299,4.011 -11.171,6.048 -5.165,2.718 -6.822,9.132 -8.662,14.671 -3.152,9.49 -8.324,18.304 -15.073,25.683 -3.612,3.95 -7.753,7.545 -12.661,9.682 -4.908,2.136 -10.677,2.683 -15.61,0.607 -4.959,-2.086 -8.507,-6.477 -11.841,-10.7 -3.085,-3.91 -6.171,-7.819 -9.257,-11.729 -3.18,-4.028 -6.423,-8.174 -7.972,-13.068 -2.126,-6.718 -1.085,-15.092 -0.204,-21.973 1.328,-10.375 4.945,-22.504 11.866,-30.523 3.972,-4.602 8.813,-8.368 13.744,-11.922 1.19,-0.858 2.43,-1.725 3.863,-2.04 1.432,-0.315 3.118,0.056 3.945,1.267 0.821,1.201 0.595,2.825 1.097,4.19 C -22.721,11.685 -4.189,1.407 0,0" /></g><g
             transform="translate(314.1963,462.3472)"
             id="g372"
             style="stroke-width:6.23630333"><path
               inkscape:connector-curvature="0"
               id="path374"
               style="fill:#fbba84;fill-opacity:1;fill-rule:nonzero;stroke:none;stroke-width:6.23630333"
               d="m 0,0 c 18.812,-4.397 37.313,-10.129 55.317,-17.137 1.186,-0.462 -1.464,-8.05 -4.652,-15.979 C 36.62,-18.782 15.52,-11.003 -3.649,-5.289 -2.427,-3.518 -1.232,-1.729 0,0" /></g><g
             transform="translate(270.8154,301.8906)"
             id="g376"
             style="stroke-width:6.23630333"><path
               inkscape:connector-curvature="0"
               id="path378"
               style="fill:#fdd5ae;fill-opacity:1;fill-rule:nonzero;stroke:none;stroke-width:6.23630333"
               d="m 0,0 c -4.379,1.267 -8.354,3.623 -12.698,4.993 -4.45,1.403 -9.023,2.871 -12.617,5.846 -4.702,3.891 -6.947,9.727 -8.172,15.543 -1.222,5.802 -2.4,11.001 -4.047,16.681 -2.26,7.794 0.312,16.859 2.162,24.46 2.856,11.739 5.712,23.477 8.569,35.214 1.184,4.868 2.478,9.95 5.816,13.686 2.468,2.764 5.835,4.531 9.123,6.239 10.051,5.22 20.1,10.44 30.15,15.66 3.425,1.779 7.592,3.011 10.744,5.146 4.451,3.015 7.667,7.304 10.701,11.7 19.169,-5.715 40.27,-13.494 54.315,-27.827 -3.389,-8.433 -7.383,-17.253 -8.02,-18.304 C 81.88,102.186 76.403,95.57 69.103,91.956 62.215,88.545 54.154,89.192 47.853,84.593 c -2.63,-1.92 -4.923,-4.47 -8.018,-5.48 -4.298,-1.403 -8.879,0.511 -13.146,2.004 -2.99,1.046 -6.734,2.073 -9.881,1.101 C 14.337,81.454 12.496,79.507 10.356,78.157 8.064,76.71 5.9,76.351 3.444,75.508 -2.118,73.601 -6.58,67.952 -8.804,62.686 -12.083,54.916 -10.022,49.069 -8.35,41.583 -8.073,40.343 -7.733,28.233 -8.185,28.421 -4.248,26.786 -0.176,25.299 2.83,22.144 -0.197,15.906 0.965,7.876 5.636,2.752 9.695,-1.701 2.615,-0.757 0,0" /></g><g
             transform="translate(234.3779,352.0762)"
             id="g380"
             style="stroke-width:6.23630333"><path
               inkscape:connector-curvature="0"
               id="path382"
               style="fill:#fbba84;fill-opacity:1;fill-rule:nonzero;stroke:none;stroke-width:6.23630333"
               d="M 0,0 C 0.706,0.364 1.396,0.632 2.18,0.783 2.875,0.917 3.855,1.126 4.493,0.752 4.836,0.552 4.792,0.111 4.447,-0.055 3.89,-0.322 3.141,-0.196 2.527,-0.27 1.798,-0.358 1.067,-0.507 0.36,-0.708 -0.047,-0.823 -0.428,-0.22 0,0" /></g><g
             transform="translate(246.373,318.0728)"
             id="g384"
             style="stroke-width:6.23630333"><path
               inkscape:connector-curvature="0"
               id="path386"
               style="fill:#fbba84;fill-opacity:1;fill-rule:nonzero;stroke:none;stroke-width:6.23630333"
               d="M 0,0 C 0.268,2.016 1.419,3.64 3.004,4.869 3.887,5.554 6.686,7.689 7.798,6.981 7.949,6.885 7.994,6.748 7.937,6.578 7.858,6.35 7.795,6.327 7.578,6.228 7.486,6.186 7.367,6.236 7.313,6.313 7.291,6.348 7.268,6.381 7.244,6.415 7.235,6.427 7.24,6.438 7.234,6.451 6.666,6.078 5.507,5.385 5.359,5.296 4.735,4.922 4.116,4.527 3.555,4.062 2.213,2.952 1.289,1.543 1.101,-0.208 1.025,-0.921 -0.095,-0.716 0,0" /></g><g
             transform="translate(248.0732,315.7593)"
             id="g388"
             style="stroke-width:6.23630333"><path
               inkscape:connector-curvature="0"
               id="path390"
               style="fill:#fbba84;fill-opacity:1;fill-rule:nonzero;stroke:none;stroke-width:6.23630333"
               d="M 0,0 C 0.175,0.791 0.949,1.408 1.482,1.993 2.088,2.658 2.676,3.338 3.368,3.915 3.591,4.101 3.938,3.791 3.795,3.545 3.341,2.765 2.764,2.071 2.208,1.361 1.718,0.734 1.25,-0.118 0.496,-0.424 0.234,-0.53 -0.06,-0.272 0,0" /></g><g
             transform="translate(242.7397,319.9814)"
             id="g392"
             style="stroke-width:6.23630333"><path
               inkscape:connector-curvature="0"
               id="path394"
               style="fill:#fbba84;fill-opacity:1;fill-rule:nonzero;stroke:none;stroke-width:6.23630333"
               d="M 0,0 C 0.091,0.5 0.384,0.953 0.62,1.398 0.879,1.888 1.151,2.371 1.419,2.855 1.644,3.261 2.271,2.961 2.07,2.537 1.832,2.037 1.598,1.535 1.352,1.04 1.128,0.59 0.932,0.083 0.581,-0.281 0.355,-0.514 -0.062,-0.337 0,0" /></g><g
             transform="translate(265.2939,309.0552)"
             id="g396"
             style="stroke-width:6.23630333"><path
               inkscape:connector-curvature="0"
               id="path398"
               style="fill:#ffeed7;fill-opacity:1;fill-rule:nonzero;stroke:none;stroke-width:6.23630333"
               d="M 0,0 C 0.356,-0.155 0.755,-0.351 1.203,-0.588 3.662,-1.887 8.839,-4.387 9.075,-7.511 7.74,-7.165 -3.991,-1.526 -4.759,-2.798 -2.982,0.149 -2.521,1.096 0,0" /></g><g
             transform="translate(377.0713,433.0273)"
             id="g400"
             style="stroke-width:6.23630333"><path
               inkscape:connector-curvature="0"
               id="path402"
               style="fill:#ffeed7;fill-opacity:1;fill-rule:nonzero;stroke:none;stroke-width:6.23630333"
               d="m 0,0 c 1.183,6.553 3.598,12.882 7.08,18.558 0.709,1.154 -20.392,12.305 -22.381,13.217 -8.091,3.706 -16.57,6.562 -25.253,8.511 -8.68,1.949 -17.566,2.991 -26.463,3.067 -3.69,0.032 -5.901,0.291 -7.328,-3.313 -1.57,-3.965 -2.671,-8.512 -3.335,-12.699 3.701,0.519 7.708,1.543 11.464,1.649 5.163,0.147 10.907,-1.924 15.837,-3.3 10.795,-3.012 21.233,-7.3 31.029,-12.743 C -12.559,9.173 -6.075,4.844 0,0" /></g><g
             transform="translate(404.0742,494.0762)"
             id="g404"
             style="stroke-width:6.23630333"><path
               inkscape:connector-curvature="0"
               id="path406"
               style="fill:#233143;fill-opacity:1;fill-rule:nonzero;stroke:none;stroke-width:6.23630333"
               d="m 0,0 -10.362,-25.214 c -2.652,-6.45 -4.076,-14.121 -7.814,-20.014 -2.794,1.638 -4.809,4.101 -7.479,5.89 -3.345,2.241 -7.179,3.957 -10.791,5.714 -7.169,3.488 -14.661,6.311 -22.345,8.435 -7.897,2.183 -16,3.628 -24.167,4.296 -2.221,0.182 -22.805,1.613 -23.214,-0.224 3.724,16.705 7.447,33.41 11.171,50.115 29.936,5.906 61.916,0.81 88.534,-14.107 C -2.814,12.844 1.141,9.99 1.413,5.812 1.544,3.804 0.765,1.861 0,0" /></g><g
             transform="translate(368.2822,448.3125)"
             id="g408"
             style="stroke-width:6.23630333"><path
               inkscape:connector-curvature="0"
               id="path410"
               style="fill:#8bc751;fill-opacity:1;fill-rule:nonzero;stroke:none;stroke-width:6.23630333"
               d="M 0,0 C 1.166,-1.356 3.056,-1.919 4.59,-0.946 6.418,0.214 7.093,3.506 5.874,5.317 3.435,8.943 -3.909,4.548 0,0" /></g><g
             transform="translate(315.1465,292.6289)"
             id="g412"
             style="stroke-width:6.23630333"><path
               inkscape:connector-curvature="0"
               id="path414"
               style="fill:#fec438;fill-opacity:1;fill-rule:nonzero;stroke:none;stroke-width:6.23630333"
               d="m 0,0 c 3.812,-17.231 -7.067,-34.289 -24.298,-38.101 -17.231,-3.811 -34.289,7.068 -38.1,24.299 -3.812,17.231 7.067,34.289 24.297,38.1 C -20.869,28.109 -3.812,17.231 0,0" /></g><g
             transform="translate(317.3174,291.2573)"
             id="g416"
             style="stroke-width:6.23630333"><path
               inkscape:connector-curvature="0"
               id="path418"
               style="fill:#fff465;fill-opacity:1;fill-rule:nonzero;stroke:none;stroke-width:6.23630333"
               d="m 0,0 c 3.812,-17.231 -7.067,-34.289 -24.298,-38.101 -17.231,-3.811 -34.289,7.068 -38.1,24.299 -3.812,17.231 7.067,34.289 24.297,38.1 C -20.869,28.109 -3.812,17.231 0,0" /></g><g
             transform="translate(311.0898,289.8799)"
             id="g420"
             style="stroke-width:6.23630333"><path
               inkscape:connector-curvature="0"
               id="path422"
               style="fill:#fec438;fill-opacity:1;fill-rule:nonzero;stroke:none;stroke-width:6.23630333"
               d="m 0,0 c 3.051,-13.792 -5.656,-27.445 -19.448,-30.496 -13.791,-3.05 -27.445,5.657 -30.495,19.449 -3.051,13.791 5.656,27.444 19.448,30.495 C -16.703,22.499 -3.05,13.792 0,0" /></g><g
             transform="translate(281.3896,305.7334)"
             id="g424"
             style="stroke-width:6.23630333"><path
               inkscape:connector-curvature="0"
               id="path426"
               style="fill:#fff465;fill-opacity:1;fill-rule:nonzero;stroke:none;stroke-width:6.23630333"
               d="m 0,0 c -11.788,-2.607 -19.256,-14.318 -16.648,-26.106 2.606,-11.787 14.318,-19.256 26.105,-16.649 11.787,2.608 19.257,14.319 16.649,26.107 C 23.499,-4.861 11.787,2.607 0,0 m 9.649,-43.625 c -12.267,-2.713 -24.455,5.06 -27.168,17.327 -2.713,12.267 5.059,24.455 17.327,27.168 12.267,2.713 24.455,-5.059 27.169,-17.326 2.712,-12.268 -5.06,-24.455 -17.328,-27.169" /></g><g
             transform="translate(287.5469,274.1162)"
             id="g428"
             style="stroke-width:6.23630333"><path
               inkscape:connector-curvature="0"
               id="path430"
               style="fill:#ffffff;fill-opacity:1;fill-rule:nonzero;stroke:none;stroke-width:6.23630333"
               d="m 0,0 -0.223,-0.049 c -0.604,-0.134 -1.15,-0.236 -1.635,-0.305 -0.487,-0.068 -0.953,-0.11 -1.403,-0.123 -0.449,-0.012 -0.9,-0.002 -1.349,0.033 -0.452,0.037 -0.926,0.094 -1.426,0.176 -0.062,0.546 -0.082,1.103 -0.054,1.678 0.028,0.575 0.075,1.178 0.15,1.811 0.839,-0.143 1.611,-0.199 2.317,-0.167 0.705,0.031 1.444,0.131 2.215,0.301 1.157,0.256 2.01,0.652 2.554,1.187 C 1.692,5.077 1.867,5.784 1.673,6.666 1.575,7.106 1.408,7.449 1.17,7.695 0.933,7.941 0.661,8.126 0.354,8.251 0.049,8.376 -0.284,8.466 -0.645,8.522 c -0.357,0.055 -0.71,0.121 -1.054,0.2 l -1.599,0.311 c -0.664,0.122 -1.273,0.272 -1.834,0.446 -0.557,0.175 -1.058,0.42 -1.505,0.735 -0.445,0.316 -0.824,0.719 -1.134,1.208 -0.31,0.49 -0.551,1.12 -0.721,1.891 -0.366,1.653 -0.186,3.06 0.54,4.222 0.725,1.161 1.89,2.026 3.5,2.593 l -0.647,2.919 c 0.362,0.196 0.744,0.338 1.148,0.428 0.385,0.085 0.801,0.119 1.249,0.102 l 0.627,-2.836 c 0.745,0.107 1.476,0.157 2.189,0.152 0.714,-0.006 1.475,-0.054 2.284,-0.145 0.126,-1.089 0.064,-2.2 -0.186,-3.333 -0.3,0.049 -0.605,0.097 -0.913,0.145 -0.309,0.046 -0.632,0.071 -0.969,0.073 -0.339,0.003 -0.713,-0.018 -1.126,-0.061 -0.416,-0.044 -0.881,-0.123 -1.393,-0.237 -0.312,-0.068 -0.625,-0.161 -0.935,-0.278 -0.311,-0.117 -0.578,-0.277 -0.804,-0.481 -0.225,-0.203 -0.389,-0.457 -0.497,-0.76 -0.104,-0.303 -0.111,-0.665 -0.018,-1.087 0.082,-0.368 0.215,-0.665 0.4,-0.893 0.185,-0.23 0.407,-0.406 0.665,-0.532 0.261,-0.126 0.541,-0.223 0.845,-0.29 0.304,-0.068 0.605,-0.125 0.906,-0.175 L 0.177,12.516 C 0.938,12.376 1.638,12.222 2.271,12.055 2.906,11.887 3.466,11.641 3.952,11.314 4.437,10.989 4.856,10.552 5.21,10.005 5.562,9.456 5.837,8.732 6.035,7.833 6.369,6.328 6.225,4.961 5.6,3.735 4.976,2.511 3.887,1.532 2.335,0.803 L 3.041,-2.39 C 2.68,-2.585 2.296,-2.729 1.893,-2.818 1.489,-2.907 1.073,-2.94 0.646,-2.92 Z" /></g><g
             transform="translate(301.3398,370.8052)"
             id="g432"
             style="stroke-width:6.23630333"><path
               inkscape:connector-curvature="0"
               id="path434"
               style="fill:#fdd5ae;fill-opacity:1;fill-rule:nonzero;stroke:none;stroke-width:6.23630333"
               d="m 0,0 c 0.292,-1.725 0.479,-3.442 0.457,-5.149 -0.079,-6.381 -3.217,-13.724 -5.429,-19.619 -2.637,-7.029 -7.384,-13.201 -13.417,-17.655 -5.38,-3.973 -9.113,-9.169 -8.522,-16.383 0.396,-4.841 3.304,-11.629 9.094,-10.889 2.715,0.347 5.088,1.979 7.166,3.761 2.078,1.782 4.009,3.783 6.396,5.125 3.472,1.952 7.646,2.361 11.122,4.306 5.422,3.033 8.18,9.153 12.129,13.95 4.134,5.021 9.734,8.725 13.595,13.96 5.509,7.47 6.946,17.262 9.492,25.99 3.021,10.356 5.71,20.808 8.063,31.335 0.651,2.909 1.269,5.99 0.34,8.822 -1.137,3.467 -4.365,5.821 -7.655,7.401 C 29.825,51.196 11.151,48.953 2.812,36.342 -1.15,30.352 -2.769,23.029 -2.748,15.847 -2.733,10.503 -0.883,5.213 0,0" /></g><g
             transform="translate(287.1289,302.291)"
             id="g436"
             style="stroke-width:6.23630333"><path
               inkscape:connector-curvature="0"
               id="path438"
               style="fill:#ffeed7;fill-opacity:1;fill-rule:nonzero;stroke:none;stroke-width:6.23630333"
               d="m 0,0 c -3.862,-0.198 -7.481,3.402 -7.304,7.265 0.148,3.237 3.459,6.882 6.867,6.739 C 2.911,13.864 5.786,9.627 8.403,7.9 5.891,5.069 2.791,2.585 0,0" /></g><g
             transform="translate(305.0068,315.3755)"
             id="g440"
             style="stroke-width:6.23630333"><path
               inkscape:connector-curvature="0"
               id="path442"
               style="fill:#fbba84;fill-opacity:1;fill-rule:nonzero;stroke:none;stroke-width:6.23630333"
               d="M 0,0 C -1.324,1.492 -2.164,3.282 -3.604,4.724 -5.02,6.142 -6.675,7.285 -8.346,8.377 -8.563,8.519 -8.416,8.831 -8.168,8.74 -4.731,7.481 -0.278,4.068 0.739,0.375 0.87,-0.103 0.311,-0.35 0,0" /></g><g
             transform="translate(306.9707,320.6396)"
             id="g444"
             style="stroke-width:6.23630333"><path
               inkscape:connector-curvature="0"
               id="path446"
               style="fill:#fbba84;fill-opacity:1;fill-rule:nonzero;stroke:none;stroke-width:6.23630333"
               d="M 0,0 C -0.112,0.257 -0.08,0.539 -0.127,0.813 -0.184,1.145 -0.291,1.466 -0.458,1.758 -0.797,2.352 -1.281,2.695 -1.881,2.989 -2.17,3.131 -2.009,3.541 -1.709,3.506 -0.899,3.414 -0.154,2.84 0.292,2.181 0.705,1.57 1.09,0.551 0.638,-0.121 0.467,-0.374 0.1,-0.229 0,0" /></g><g
             transform="translate(332.1729,351.0937)"
             id="g448"
             style="stroke-width:6.23630333"><path
               inkscape:connector-curvature="0"
               id="path450"
               style="fill:#fbba84;fill-opacity:1;fill-rule:nonzero;stroke:none;stroke-width:6.23630333"
               d="m 0,0 c -2.429,1.628 -4.848,3.107 -7.616,4.098 -1.4,0.501 -2.83,0.901 -4.287,1.194 -1.235,0.249 -3.819,1.008 -4.849,0.158 -0.182,-0.15 -0.461,0.1 -0.346,0.3 1.185,2.068 5.943,0.608 7.663,0.18 C -5.75,5.014 -2.1,3.392 0.863,0.993 1.538,0.446 0.683,-0.458 0,0" /></g><g
             transform="translate(331.5146,358.4771)"
             id="g452"
             style="stroke-width:6.23630333"><path
               inkscape:connector-curvature="0"
               id="path454"
               style="fill:#fbba84;fill-opacity:1;fill-rule:nonzero;stroke:none;stroke-width:6.23630333"
               d="M 0,0 C -0.405,0.262 -0.108,0.937 0.34,0.694 0.988,0.343 1.638,-0.006 2.274,-0.376 2.851,-0.711 3.497,-1.009 3.972,-1.482 4.209,-1.719 4.044,-2.25 3.655,-2.135 2.366,-1.752 1.12,-0.727 0,0" /></g><g
             transform="translate(9.9541,327.7173)"
             id="g456"
             style="stroke-width:6.23630333"><path
               inkscape:connector-curvature="0"
               id="path458"
               style="fill:#b68e62;fill-opacity:1;fill-rule:nonzero;stroke:none;stroke-width:6.23630333"
               d="m 0,0 c -0.103,14.358 4.553,28.71 13.065,40.273 4.592,6.239 10.294,11.647 16.727,15.958 2.129,1.428 3.896,3.549 6,4.877 3.112,1.966 7.916,2.335 11.49,2.197 C 48.246,63.269 40.728,49.999 40.205,49.033 38.345,45.599 36.364,42.23 34.268,38.935 29.843,31.977 24.905,25.345 19.507,19.111 13.542,12.222 7.015,5.818 0,0" /></g><g
             transform="translate(131.8613,261.2368)"
             id="g460"
             style="stroke-width:6.23630333"><path
               inkscape:connector-curvature="0"
               id="path462"
               style="fill:#fbba84;fill-opacity:1;fill-rule:nonzero;stroke:none;stroke-width:6.23630333"
               d="m 0,0 c -1.987,-2.546 -4.379,-5.315 -7.604,-5.491 -2.823,-0.155 -5.443,1.907 -6.582,4.493 -1.138,2.588 -1.016,5.572 -0.369,8.323 0.249,1.06 0.328,2.568 -0.728,2.835 -0.458,0.115 -0.929,-0.099 -1.342,-0.331 -3.2,-1.801 -5.456,-4.878 -8.296,-7.205 -2.841,-2.329 -6.963,-3.886 -10.139,-2.041 -2.521,1.464 -3.584,4.683 -3.321,7.587 0.264,2.904 1.605,5.585 2.923,8.187 -2.469,-1.179 -5.046,-2.383 -7.782,-2.366 -2.736,0.017 -5.669,1.648 -6.237,4.324 -0.866,4.081 3.697,7.028 5.706,10.684 2.679,4.876 0.625,10.85 -0.824,16.223 -2.482,9.205 -3.002,18.934 -1.514,28.351 0.796,5.041 2.2,10.078 4.981,14.357 2.78,4.279 7.08,7.748 12.096,8.691 5.041,0.947 10.171,-0.68 15.043,-2.286 4.51,-1.487 9.019,-2.975 13.529,-4.461 4.647,-1.533 9.407,-3.126 13.211,-6.204 5.224,-4.225 8.797,-11.433 11.714,-17.369 4.398,-8.949 7.898,-20.499 6.61,-30.515 -0.74,-5.749 -2.61,-11.289 -4.663,-16.709 -0.496,-1.307 -1.027,-2.649 -2,-3.653 -0.974,-1.004 -2.51,-1.595 -3.805,-1.067 -1.284,0.524 -1.958,1.935 -3.074,2.757 C 11.928,21.24 2.592,3.322 0,0" /></g><g
             transform="translate(43.9243,385.1567)"
             id="g464"
             style="stroke-width:6.23630333"><path
               inkscape:connector-curvature="0"
               id="path466"
               style="fill:#fbba84;fill-opacity:1;fill-rule:nonzero;stroke:none;stroke-width:6.23630333"
               d="m 0,0 c -12.651,-13.389 -24.353,-27.674 -34.987,-42.713 -0.701,-0.991 5.397,-5.632 12.1,-10.264 3.636,18.786 16.328,36.066 28.571,50.689 C 3.78,-1.522 1.89,-0.728 0,0" /></g><g
             transform="translate(162.7871,280.3428)"
             id="g468"
             style="stroke-width:6.23630333"><path
               inkscape:connector-curvature="0"
               id="path470"
               style="fill:#fdd5ae;fill-opacity:1;fill-rule:nonzero;stroke:none;stroke-width:6.23630333"
               d="m 0,0 c 2.817,3.31 4.74,7.273 7.475,10.646 2.802,3.457 5.667,7.028 6.962,11.285 1.693,5.566 0.411,11.388 -1.672,16.657 -2.41,6.096 -4.39,12.416 -6.848,18.522 -3.031,7.528 -9.378,12.682 -15.622,17.493 -5.806,4.474 -11.879,9.542 -17.142,14.732 -4.587,4.523 -8.841,9.204 -15.425,10.791 -3.209,0.773 -6.551,0.728 -9.851,0.658 -15.441,-0.329 -31.001,-2.109 -46.394,-1.937 -5.126,0.057 -9.938,1.778 -14.662,3.679 -12.242,-14.623 -24.935,-31.903 -28.571,-50.689 7.129,-4.925 14.943,-9.839 16.002,-10.341 6.9,-3.269 14.734,-5.652 22.441,-4.688 7.271,0.909 13.343,5.661 20.773,5.316 3.1,-0.145 6.265,-0.968 9.258,-0.144 4.155,1.145 6.793,5.075 9.401,8.505 1.829,2.405 4.267,5.19 7.282,6.072 2.366,0.691 4.854,0.11 7.265,0.161 2.584,0.054 4.495,0.906 6.891,1.528 5.426,1.407 11.946,-0.74 16.482,-3.76 6.694,-4.455 8.129,-10.189 10.735,-17.023 0.431,-1.132 6.528,-10.942 6.788,-10.555 -2.648,-3.928 -5.124,-8.056 -6.498,-12.616 0.084,0.277 5.818,-5.823 6.254,-6.574 1.488,-2.566 2.297,-5.451 2.776,-8.293 0.336,-1.992 -0.579,-2.996 1.854,-2.737 C -2.664,-3.164 -0.842,-0.99 0,0" /></g><g
             transform="translate(163.4121,288.9434)"
             id="g472"
             style="stroke-width:6.23630333"><path
               inkscape:connector-curvature="0"
               id="path474"
               style="fill:#ffeed7;fill-opacity:1;fill-rule:nonzero;stroke:none;stroke-width:6.23630333"
               d="M 0,0 C -0.202,-0.311 -0.416,-0.675 -0.647,-1.1 -1.92,-3.426 -4.724,-8.136 -3.269,-10.745 -2.389,-9.768 3.977,0.885 5.256,0.277 2.293,1.687 1.429,2.198 0,0" /></g><g
             transform="translate(56.7393,391.3691)"
             id="g476"
             style="stroke-width:6.23630333"><path
               inkscape:connector-curvature="0"
               id="path478"
               style="fill:#fff465;fill-opacity:1;fill-rule:nonzero;stroke:none;stroke-width:6.23630333"
               d="m 0,0 c -2.646,-1.261 -5.635,-2.363 -8.31,-3.762 -0.426,-0.218 -0.846,-0.452 -1.252,-0.698 -0.141,-0.082 -0.283,-0.164 -0.421,-0.253 -0.61,-0.38 -1.204,-0.799 -1.78,-1.266 -0.387,-0.294 -0.774,-0.615 -1.146,-0.949 -2.925,-2.596 -5.516,-5.947 -7.937,-8.741 -0.624,-0.722 -1.237,-1.448 -1.847,-2.183 -0.307,-0.363 -0.61,-0.734 -0.913,-1.106 -1.535,-1.88 -3.017,-3.805 -4.445,-5.772 -0.291,-0.403 -0.583,-0.806 -0.866,-1.206 -3.502,-4.91 -6.676,-10.059 -9.487,-15.396 -0.144,-0.264 -0.281,-0.525 -0.417,-0.787 -0.074,-0.138 -0.141,-0.273 -0.212,-0.418 -0.777,-1.508 -1.496,-3.049 -2.175,-4.601 -0.205,-0.461 -0.402,-0.919 -0.596,-1.385 -1.947,-4.577 -3.643,-9.24 -5.674,-13.741 -0.943,0.776 -1.894,1.548 -2.861,2.314 -0.235,0.183 -0.469,0.366 -0.703,0.549 -1.095,0.863 -2.209,1.728 -3.336,2.578 -0.323,0.249 -0.643,0.49 -0.963,0.731 -2.256,1.682 -4.552,3.349 -6.876,4.996 -0.357,0.244 -0.71,0.5 -1.068,0.745 -1.236,0.872 -2.476,1.734 -3.724,2.593 -0.369,0.249 -0.727,0.494 -1.088,0.747 -2.402,1.635 -4.808,3.26 -7.202,4.852 -0.344,0.232 -0.685,0.456 -1.026,0.68 -1.627,1.086 -3.237,2.152 -4.835,3.212 -3.977,2.633 -9.152,5.023 -14.487,7.571 -0.383,0.19 -0.77,0.368 -1.16,0.555 -5.686,2.75 -11.477,5.724 -16.089,9.422 -0.291,0.234 -0.569,0.464 -0.852,0.701 -4.93,4.195 -8.343,9.318 -8.533,16.051 -0.05,1.718 0.073,3.413 0.348,5.092 0.028,0.211 0.067,0.417 0.103,0.631 0.316,1.714 0.782,3.394 1.374,5.05 0.078,0.248 0.172,0.502 0.268,0.748 1.592,4.223 3.959,8.225 6.611,11.89 1.372,1.901 2.834,3.735 4.369,5.498 0.228,0.26 0.455,0.52 0.686,0.773 1.495,1.675 3.061,3.285 4.697,4.832 0.226,0.214 0.453,0.429 0.689,0.646 5.169,4.786 10.963,8.893 17.203,12.17 0.302,0.161 0.615,0.318 0.92,0.471 0.325,0.17 0.647,0.33 0.975,0.493 3.44,1.683 7.109,3.146 10.894,3.479 0.474,0.045 0.949,0.064 1.419,0.071 0.172,0.003 0.336,0.002 0.511,-0.003 1.357,-0.026 2.693,-0.214 3.998,-0.532 0.486,-0.105 0.976,-0.244 1.462,-0.395 3.795,-1.164 7.363,-3.279 10.76,-5.397 1.399,-0.873 2.81,-1.751 4.235,-2.642 0.384,-0.244 0.769,-0.488 1.161,-0.728 7.658,-4.805 15.501,-9.856 23.052,-15.284 0.439,-0.314 0.878,-0.627 1.312,-0.953 0.942,-0.675 1.871,-1.365 2.799,-2.055 0.359,-0.272 0.722,-0.552 1.091,-0.828 1.219,-0.924 2.426,-1.863 3.627,-2.812 0.454,-0.353 0.904,-0.718 1.352,-1.082 2.698,-2.168 5.32,-4.401 7.85,-6.706 C -8.164,8.14 -7.811,7.812 -7.449,7.486 -6.414,6.519 -5.394,5.545 -4.396,4.555 -4.03,4.195 -3.664,3.834 -3.314,3.468 -2.177,2.331 -1.077,1.17 0,0" /></g><g
             transform="translate(161.8789,308.1753)"
             id="g480"
             style="stroke-width:6.23630333"><path
               inkscape:connector-curvature="0"
               id="path482"
               style="fill:#fbba84;fill-opacity:1;fill-rule:nonzero;stroke:none;stroke-width:6.23630333"
               d="m 0,0 c -0.35,-0.012 -0.348,-0.539 -0.02,-0.599 2.39,-0.434 4.685,-0.833 6.932,-1.816 2.051,-0.897 3.759,-2.28 5.681,-3.388 0.076,-0.044 0.144,0.062 0.1,0.125 C 10.145,-2.038 4.324,0.148 0,0" /></g><g
             transform="translate(169.7891,309.5547)"
             id="g484"
             style="stroke-width:6.23630333"><path
               inkscape:connector-curvature="0"
               id="path486"
               style="fill:#fbba84;fill-opacity:1;fill-rule:nonzero;stroke:none;stroke-width:6.23630333"
               d="m 0,0 c -0.381,0.045 -0.45,-0.478 -0.095,-0.577 1.007,-0.28 1.983,-0.687 2.854,-1.267 0.773,-0.514 1.339,-1.23 2.07,-1.781 0.237,-0.179 0.624,0.061 0.491,0.359 C 4.48,-1.378 1.934,-0.23 0,0" /></g><g
             transform="translate(172.7461,311.2378)"
             id="g488"
             style="stroke-width:6.23630333"><path
               inkscape:connector-curvature="0"
               id="path490"
               style="fill:#fbba84;fill-opacity:1;fill-rule:nonzero;stroke:none;stroke-width:6.23630333"
               d="M 0,0 C -0.328,0.094 -0.411,-0.431 -0.086,-0.524 0.565,-0.711 1.06,-1.103 1.658,-1.388 1.833,-1.472 1.991,-1.253 1.887,-1.103 1.473,-0.507 0.669,-0.192 0,0" /></g><g
             transform="translate(164.6704,340.0913)"
             id="g492"
             style="stroke-width:6.23630333"><path
               inkscape:connector-curvature="0"
               id="path494"
               style="fill:#fbba84;fill-opacity:1;fill-rule:nonzero;stroke:none;stroke-width:6.23630333"
               d="m 0,0 c -4.005,1.26 -9.794,0.459 -12.976,-2.352 -0.257,-0.227 0.019,-0.585 0.311,-0.422 2.108,1.172 4.318,1.803 6.725,1.979 1.931,0.142 3.927,-0.244 5.827,0.098 C 0.205,-0.64 0.382,-0.121 0,0" /></g><g
             transform="translate(157.3364,344.3911)"
             id="g496"
             style="stroke-width:6.23630333"><path
               inkscape:connector-curvature="0"
               id="path498"
               style="fill:#fbba84;fill-opacity:1;fill-rule:nonzero;stroke:none;stroke-width:6.23630333"
               d="m 0,0 c -0.743,0.143 -1.428,-0.042 -2.158,-0.196 -0.645,-0.136 -1.278,-0.274 -1.859,-0.594 -0.182,-0.1 -0.08,-0.387 0.1,-0.416 0.716,-0.114 1.436,0.008 2.146,0.112 0.69,0.101 1.3,0.183 1.904,0.541 C 0.374,-0.41 0.24,-0.046 0,0" /></g><g
             transform="translate(120.7021,374.771)"
             id="g500"
             style="stroke-width:6.23630333"><path
               inkscape:connector-curvature="0"
               id="path502"
               style="fill:#fbba84;fill-opacity:1;fill-rule:nonzero;stroke:none;stroke-width:6.23630333"
               d="m 0,0 c -1.96,-0.917 -4.231,-1.506 -5.897,-2.935 -1.634,-1.401 -2.2,-3.408 -3.532,-5.03 -0.222,-0.27 0.186,-0.586 0.42,-0.336 1.527,1.636 2.177,3.816 4.101,5.124 1.643,1.116 3.91,1.204 5.218,2.753 C 0.478,-0.225 0.248,0.116 0,0" /></g><g
             transform="translate(118.0161,376.8706)"
             id="g504"
             style="stroke-width:6.23630333"><path
               inkscape:connector-curvature="0"
               id="path506"
               style="fill:#fbba84;fill-opacity:1;fill-rule:nonzero;stroke:none;stroke-width:6.23630333"
               d="m 0,0 c -0.478,-0.212 -0.839,-0.559 -1.262,-0.855 -0.491,-0.344 -1.023,-0.639 -1.571,-0.881 -0.361,-0.16 -0.151,-0.646 0.214,-0.558 1.078,0.262 2.491,0.839 2.965,1.929 C 0.436,-0.158 0.221,0.098 0,0" /></g><g
             transform="translate(42.0562,388.519)"
             id="g508"
             style="stroke-width:6.23630333"><path
               inkscape:connector-curvature="0"
               id="path510"
               style="fill:#c0aec3;fill-opacity:1;fill-rule:nonzero;stroke:none;stroke-width:6.23630333"
               d="m 0,0 c -0.127,-0.095 -0.241,-0.202 -0.366,-0.304 -1.004,0.861 -2.025,1.698 -3.042,2.545 0.504,0.466 1.018,0.927 1.547,1.376 0.192,0.164 0.394,0.324 0.586,0.488 C -0.572,3.483 0.122,2.858 0.825,2.236 1.145,1.949 1.464,1.663 1.78,1.384 1.182,0.927 0.584,0.47 0,0 m -12.07,-12.647 c -1.016,0.584 -2.048,1.161 -3.068,1.734 3.22,4.32 6.712,8.426 10.651,12.148 0.992,-0.829 1.988,-1.648 2.975,-2.488 -3.952,-3.382 -7.367,-7.286 -10.558,-11.394 m -1.428,-1.876 c -1.119,-1.495 -2.213,-3.006 -3.293,-4.531 -0.865,0.715 -1.739,1.426 -2.609,2.129 1.12,1.658 2.275,3.294 3.448,4.908 1.013,-0.576 2.028,-1.16 3.036,-1.747 -0.196,-0.248 -0.389,-0.504 -0.582,-0.759 m -13.656,-20.963 c -0.881,0.754 -1.771,1.486 -2.657,2.229 1.08,1.834 2.2,3.655 3.354,5.463 2.052,3.235 4.112,6.473 6.24,9.655 0.854,-0.71 1.717,-1.416 2.579,-2.122 -3.429,-4.91 -6.634,-9.979 -9.516,-15.225 m -2.834,-5.418 c -0.824,0.794 -1.663,1.582 -2.491,2.365 -0.07,0.064 -0.148,0.125 -0.218,0.189 0.725,1.334 1.465,2.655 2.227,3.966 0.899,-0.755 1.788,-1.506 2.682,-2.273 -0.754,-1.4 -1.492,-2.82 -2.2,-4.247 m -9.854,8.893 c 0.645,1.212 1.29,2.424 1.951,3.615 0.842,-0.651 1.691,-1.299 2.527,-1.96 1.336,-1.062 2.653,-2.149 3.963,-3.238 -0.757,-1.301 -1.495,-2.603 -2.21,-3.915 -2.039,1.875 -4.119,3.716 -6.231,5.498 m -4.368,3.583 c 0.629,1.133 1.259,2.266 1.91,3.389 1.046,-0.781 2.103,-1.567 3.144,-2.359 -0.654,-1.189 -1.278,-2.384 -1.902,-3.579 -1.034,0.869 -2.093,1.708 -3.152,2.549 m -5.578,4.292 c -0.598,0.444 -1.214,0.863 -1.816,1.296 0.628,1.042 1.267,2.078 1.913,3.099 2.174,-1.494 4.319,-3.028 6.438,-4.59 -0.636,-1.117 -1.25,-2.244 -1.867,-3.363 -1.538,1.211 -3.094,2.397 -4.668,3.558 M -73.242,-9.37 c 0.555,1.068 1.128,2.134 1.716,3.188 7.086,-3.932 13.98,-8.193 20.672,-12.758 -0.642,-1.029 -1.255,-2.065 -1.878,-3.096 -6.559,4.644 -13.409,8.885 -20.51,12.666 m -1.214,0.626 c -4.655,2.435 -9.4,4.7 -14.24,6.737 -0.542,0.229 -1.082,0.449 -1.621,0.67 0.64,1.201 1.294,2.389 1.967,3.575 5.281,-2.405 10.501,-4.96 15.636,-7.766 -0.593,-1.065 -1.174,-2.134 -1.742,-3.216 m -9.438,18.552 c 2.203,3.529 4.514,6.991 6.936,10.377 5.279,-2.588 10.449,-5.417 15.518,-8.477 -3.878,-5.236 -7.521,-10.656 -10.744,-16.295 -5.127,2.763 -10.344,5.356 -15.644,7.763 1.275,2.226 2.579,4.447 3.934,6.632 m 11.421,16.401 c 5.369,-2.516 10.616,-5.28 15.618,-8.501 -1.285,-1.63 -2.564,-3.277 -3.81,-4.938 -4.937,2.956 -9.974,5.745 -15.148,8.272 -0.135,0.067 -0.255,0.121 -0.39,0.187 1.221,1.679 2.467,3.34 3.73,4.98 m 11.853,14.02 c 5.062,-2.925 10.06,-5.967 14.988,-9.089 -2.36,-2.716 -4.707,-5.445 -7,-8.218 -1.177,-1.416 -2.328,-2.849 -3.479,-4.283 -4.376,2.798 -8.946,5.293 -13.642,7.549 -0.668,0.317 -1.34,0.623 -2.008,0.94 3.522,4.527 7.242,8.893 11.141,13.101 m 6.303,6.503 c 0.211,0.209 0.433,0.413 0.645,0.621 4.605,-3.228 9.131,-6.56 13.574,-10.004 -1.545,-1.712 -3.09,-3.424 -4.61,-5.154 -4.019,2.507 -8.075,4.945 -12.187,7.288 -0.965,0.549 -1.94,1.076 -2.914,1.621 1.797,1.909 3.622,3.792 5.492,5.628 M -31.42,30.406 c 4.263,-3.523 8.462,-7.115 12.623,-10.751 -1.04,-0.963 -2.078,-1.934 -3.099,-2.926 -7.056,5.18 -14.293,10.101 -21.694,14.758 1.505,1.697 3.016,3.377 4.534,5.042 2.572,-2.006 5.118,-4.041 7.636,-6.123 m 17.056,-14.645 c -0.838,-0.922 -1.673,-1.852 -2.494,-2.795 -1.261,0.963 -2.519,1.917 -3.793,2.866 0.201,0.187 0.397,0.389 0.603,0.586 0.795,0.751 1.607,1.481 2.415,2.219 1.094,-0.954 2.18,-1.911 3.269,-2.876 m 4.261,-3.779 c -0.773,-0.806 -1.554,-1.615 -2.321,-2.438 -1.081,0.851 -2.174,1.705 -3.271,2.549 -0.017,0.02 -0.039,0.03 -0.064,0.048 0.806,0.91 1.616,1.812 2.428,2.706 1.075,-0.952 2.162,-1.909 3.228,-2.865 M -23.489,-6.102 c 3.527,4.702 7.291,9.24 11.312,13.603 2.246,-1.776 4.47,-3.589 6.685,-5.423 -3.196,-3.028 -6.152,-6.282 -8.809,-9.695 -0.677,-0.869 -1.339,-1.751 -1.995,-2.649 -2.428,1.371 -4.844,2.737 -7.193,4.164 m -3.458,-4.766 c 0.883,1.258 1.781,2.494 2.684,3.723 2.359,-1.451 4.765,-2.839 7.169,-4.218 -1.127,-1.57 -2.22,-3.154 -3.285,-4.764 -2.18,1.766 -4.367,3.529 -6.568,5.259 m -0.837,-1.185 c 2.091,-1.655 4.165,-3.315 6.238,-4.994 l 0.36,-0.299 c -1.725,-2.618 -3.395,-5.26 -5.079,-7.89 -1.527,-2.397 -3.023,-4.809 -4.47,-7.248 -0.45,0.365 -0.889,0.751 -1.349,1.121 -1.708,1.391 -3.441,2.755 -5.185,4.097 2.93,5.218 6.088,10.288 9.485,15.213 m -7.795,-1.927 c 1.158,1.773 2.343,3.52 3.551,5.257 0.997,-0.773 1.989,-1.557 2.989,-2.338 -3.415,-4.922 -6.586,-10.006 -9.502,-15.237 -1.041,0.792 -2.082,1.585 -3.136,2.363 1.948,3.368 3.977,6.685 6.098,9.955 m -2.864,10.12 c 1.818,-1.349 3.628,-2.721 5.424,-4.106 -3.399,-4.989 -6.61,-10.088 -9.603,-15.285 -2.112,1.546 -4.247,3.056 -6.405,4.53 3.294,5.121 6.826,10.071 10.584,14.861 m -1.196,0.887 c -3.759,-4.809 -7.288,-9.793 -10.565,-14.935 -0.035,0.022 -0.074,0.053 -0.113,0.083 -6.69,4.512 -13.598,8.713 -20.682,12.591 3.197,5.612 6.787,11.029 10.65,16.279 7.119,-4.348 13.995,-9.061 20.71,-14.018 m -11.756,16.908 c 5.288,-3.94 10.15,-8.407 15.244,-12.576 -0.883,-1.067 -1.755,-2.138 -2.613,-3.222 -6.743,4.936 -13.654,9.645 -20.801,13.972 1.23,1.655 2.488,3.285 3.768,4.904 1.488,-0.985 2.962,-2.003 4.402,-3.078 M -35.322,2.351 c -4.3,3.5 -8.442,7.205 -12.803,10.627 -2.241,1.761 -4.565,3.407 -6.936,4.963 3.394,4.268 6.94,8.423 10.533,12.504 7.34,-4.69 14.538,-9.598 21.563,-14.746 -4.328,-4.253 -8.461,-8.705 -12.357,-13.348 m 6.215,-4.767 c -1.717,1.225 -3.401,2.507 -5.043,3.824 3.92,4.652 8.065,9.118 12.427,13.376 1.31,-0.971 2.612,-1.946 3.906,-2.923 -3.949,-4.6 -7.724,-9.369 -11.29,-14.277 m 1.937,-1.35 c -0.294,0.197 -0.586,0.412 -0.872,0.612 3.579,4.877 7.358,9.611 11.316,14.187 1.108,-0.848 2.216,-1.697 3.311,-2.56 -3.258,-3.552 -6.388,-7.228 -9.362,-11.026 -0.702,-0.897 -1.382,-1.804 -2.07,-2.714 -0.78,0.492 -1.556,0.996 -2.323,1.501 m -5.042,-3.008 c -1.768,1.36 -3.554,2.694 -5.348,4.026 0.848,1.062 1.707,2.12 2.58,3.165 1.328,-1.065 2.679,-2.121 4.058,-3.129 0.353,-0.256 0.707,-0.493 1.057,-0.741 -0.787,-1.103 -1.571,-2.213 -2.347,-3.321 m 3.397,2.577 c 1.048,-0.717 2.117,-1.416 3.196,-2.094 -0.875,-1.182 -1.743,-2.379 -2.59,-3.587 -0.89,0.705 -1.779,1.41 -2.681,2.101 -0.103,0.079 -0.206,0.158 -0.309,0.236 0.778,1.127 1.581,2.236 2.384,3.344 M -2.269,4.989 C -2.994,4.365 -3.705,3.728 -4.413,3.083 c -2.239,1.853 -4.491,3.69 -6.777,5.498 0.375,0.398 0.731,0.798 1.108,1.189 0.375,0.399 0.775,0.78 1.153,1.17 2.223,-1.976 4.441,-3.964 6.66,-5.951 M 11.369,6.318 C 11.019,6.685 10.653,7.045 10.288,7.405 7.765,5.727 5.275,3.989 2.863,2.19 1.827,3.112 0.791,4.034 -0.243,4.947 2.149,6.894 4.66,8.675 7.234,10.336 6.873,10.662 6.519,10.99 6.168,11.311 3.6,9.634 1.127,7.802 -1.24,5.839 c -2.265,2.015 -4.519,4.025 -6.781,6.032 2.011,2.036 4.046,4.036 6.151,5.972 0.059,0.059 0.129,0.114 0.188,0.173 -0.448,0.364 -0.898,0.729 -1.352,1.082 -2.125,-2.025 -4.168,-4.147 -6.164,-6.177 -1.089,0.965 -2.178,1.93 -3.267,2.895 1.09,1.191 2.198,2.381 3.316,3.547 0.824,0.862 1.655,1.709 2.488,2.547 -0.369,0.277 -0.732,0.556 -1.09,0.828 -1.959,-1.962 -3.873,-3.969 -5.744,-6.016 -1.058,0.931 -2.116,1.863 -3.182,2.791 2.009,1.808 4.046,3.564 6.126,5.28 -0.434,0.326 -0.873,0.639 -1.312,0.953 -2.035,-1.691 -4.03,-3.439 -5.986,-5.218 -6.656,5.799 -13.42,11.474 -20.4,16.885 0.957,1.04 1.902,2.085 2.862,3.117 0.154,0.169 0.316,0.34 0.472,0.5 -0.392,0.241 -0.777,0.484 -1.161,0.728 -1.088,-1.173 -2.165,-2.35 -3.238,-3.535 -2.081,1.604 -4.182,3.19 -6.313,4.738 -2.407,1.742 -4.836,3.449 -7.305,5.095 0.611,0.589 1.236,1.165 1.861,1.741 -0.486,0.151 -0.976,0.29 -1.462,0.395 -0.235,-0.217 -0.459,-0.44 -0.694,-0.657 -0.265,-0.257 -0.512,-0.515 -0.78,-0.764 -1.009,0.66 -2.017,1.319 -3.035,1.957 -0.47,-0.008 -0.945,-0.027 -1.419,-0.072 1.256,-0.855 2.504,-1.714 3.756,-2.58 -2.115,-2.076 -4.199,-4.186 -6.223,-6.355 -3.105,1.711 -6.241,3.364 -9.402,4.963 -0.305,-0.153 -0.618,-0.31 -0.92,-0.471 3.197,-1.74 6.366,-3.526 9.518,-5.338 -2.616,-2.832 -5.151,-5.734 -7.592,-8.717 -1.216,-1.477 -2.402,-2.987 -3.569,-4.499 -5.097,2.329 -10.303,4.444 -15.56,6.384 -0.235,-0.217 -0.463,-0.432 -0.689,-0.646 5.215,-2.139 10.428,-4.296 15.538,-6.658 -1.252,-1.645 -2.491,-3.302 -3.689,-4.991 -5.383,2.575 -10.894,4.891 -16.546,6.817 -0.231,-0.253 -0.458,-0.513 -0.686,-0.773 5.609,-2.124 11.101,-4.484 16.488,-7.094 -3.877,-5.5 -7.494,-11.2 -10.795,-17.062 -0.22,0.098 -0.442,0.204 -0.662,0.302 -5.231,2.323 -10.567,4.561 -16.01,6.466 -0.097,-0.246 -0.191,-0.5 -0.268,-0.748 5.518,-2.241 10.99,-4.527 16.401,-6.963 -0.67,-1.194 -1.304,-2.411 -1.944,-3.612 -5.173,2.1 -10.463,3.982 -15.831,5.525 -0.037,-0.213 -0.076,-0.42 -0.104,-0.631 5.238,-1.747 10.404,-3.641 15.491,-5.729 -1.107,-2.117 -2.19,-4.252 -3.22,-6.404 -1.407,-2.95 -2.792,-5.956 -4.085,-9.01 0.282,-0.237 0.561,-0.467 0.851,-0.701 0.908,2.186 1.846,4.366 2.85,6.516 1.447,3.103 2.989,6.151 4.596,9.17 5.382,-2.239 10.671,-4.713 15.854,-7.455 -1.304,-2.529 -2.52,-5.098 -3.632,-7.726 -1.364,-3.226 -2.577,-6.539 -3.579,-9.927 0.39,-0.187 0.777,-0.365 1.16,-0.555 1.898,6.078 4.358,11.926 7.252,17.568 0.598,-0.326 1.209,-0.638 1.807,-0.963 6.416,-3.561 12.625,-7.484 18.599,-11.742 -1.381,-2.305 -2.726,-4.632 -3.995,-6.993 -1.537,-2.846 -2.979,-5.729 -4.341,-8.653 0.341,-0.224 0.682,-0.448 1.026,-0.68 2.578,5.302 5.396,10.477 8.422,15.515 2.199,-1.604 4.367,-3.247 6.507,-4.937 -0.097,-0.174 -0.202,-0.351 -0.291,-0.521 -2.587,-4.805 -5.234,-9.788 -7.436,-14.909 0.361,-0.253 0.719,-0.498 1.088,-0.747 1.852,4.041 3.668,8.104 5.729,12.052 0.6,1.14 1.211,2.275 1.832,3.405 1.055,-0.851 2.097,-1.716 3.141,-2.589 -0.826,-1.618 -1.629,-3.245 -2.412,-4.883 -1.652,-3.473 -3.182,-6.999 -4.566,-10.577 0.358,-0.246 0.711,-0.501 1.068,-0.746 2.195,5.164 4.575,10.225 7.15,15.181 1.487,-1.268 2.953,-2.552 4.399,-3.853 0.613,-0.556 1.2,-1.114 1.798,-1.676 -0.593,-1.11 -1.181,-2.209 -1.741,-3.334 -1.819,-3.655 -3.454,-7.43 -4.73,-11.314 0.32,-0.241 0.64,-0.482 0.963,-0.731 1.749,5.02 3.933,9.834 6.418,14.527 0.907,-0.871 1.805,-1.764 2.692,-2.652 -0.685,-1.418 -1.352,-2.857 -1.981,-4.299 -1.469,-3.357 -2.725,-6.723 -3.792,-10.154 0.233,-0.183 0.467,-0.366 0.702,-0.549 1.708,4.795 3.732,9.503 5.98,14.078 0.865,-0.879 1.714,-1.763 2.555,-2.651 0.194,0.466 0.392,0.924 0.597,1.385 -0.842,0.842 -1.691,1.68 -2.543,2.5 0.729,1.444 1.48,2.879 2.244,4.3 0.327,-0.283 0.66,-0.556 0.987,-0.84 0.499,-0.446 0.997,-0.892 1.486,-1.359 0.071,0.145 0.138,0.28 0.212,0.418 0.137,0.262 0.273,0.523 0.417,0.788 -0.807,0.728 -1.643,1.435 -2.466,2.156 0.686,1.227 1.373,2.447 2.083,3.656 2.329,3.96 4.843,7.818 7.477,11.577 0.798,-0.658 1.6,-1.325 2.393,-1.993 0.283,0.399 0.575,0.802 0.866,1.205 -0.794,0.669 -1.603,1.332 -2.402,1.99 0.676,0.942 1.349,1.891 2.039,2.821 0.651,0.886 1.317,1.76 1.982,2.634 0.08,-0.042 0.163,-0.092 0.243,-0.134 0.867,-0.504 1.729,-1.02 2.583,-1.538 0.303,0.371 0.607,0.742 0.913,1.106 -0.956,0.57 -1.916,1.129 -2.885,1.686 3.051,3.927 6.324,7.703 10.127,10.928 0.101,0.093 0.208,0.17 0.304,0.253 0.19,-0.164 0.382,-0.308 0.564,-0.475 0.56,-0.486 1.119,-0.972 1.674,-1.469 0.372,0.334 0.759,0.655 1.146,0.95 -0.739,0.644 -1.485,1.286 -2.232,1.927 0.704,0.561 1.414,1.107 2.134,1.647 0.773,-0.686 1.535,-1.367 2.3,-2.056 0.405,0.246 0.825,0.48 1.251,0.698 -0.823,0.722 -1.645,1.443 -2.46,2.168 2.427,1.759 4.94,3.415 7.456,5.062" /></g><g
             transform="translate(234.9268,241.124)"
             id="g512"
             style="stroke-width:6.23630333"><path
               inkscape:connector-curvature="0"
               id="path514"
               style="fill:#81c453;fill-opacity:1;fill-rule:nonzero;stroke:none;stroke-width:6.23630333"
               d="m 0,0 c -0.338,-0.347 -16.289,-20.422 -22.41,-32.317 -6.122,-11.896 -13.638,-28.833 -13.638,-28.833 0,0 -52.568,-1.434 -107.15,47.99 -39.175,35.472 -44.287,54.426 -44.287,54.426 l 38.785,57.245 c 0,0 32.309,-41.431 72.818,-70.09 C -56.485,14.699 0,0 0,0" /></g><g
             transform="translate(238.229,255.4082)"
             id="g516"
             style="stroke-width:6.23630333"><path
               inkscape:connector-curvature="0"
               id="path518"
               style="fill:#a0cd4e;fill-opacity:1;fill-rule:nonzero;stroke:none;stroke-width:6.23630333"
               d="m 0,0 c -0.31,-0.372 -14.633,-21.639 -19.801,-33.979 -5.167,-12.339 -11.329,-29.816 -11.329,-29.816 0,0 -52.293,-5.559 -110.591,39.421 -41.841,32.283 -48.427,50.777 -48.427,50.777 l 34.166,60.117 c 0,0 35.466,-38.764 78.102,-64.15 C -57.465,10.214 0,0 0,0" /></g><g
             transform="translate(238.9492,270.1401)"
             id="g520"
             style="stroke-width:6.23630333"><path
               inkscape:connector-curvature="0"
               id="path522"
               style="fill:#b6d54b;fill-opacity:1;fill-rule:nonzero;stroke:none;stroke-width:6.23630333"
               d="m 0,0 c -0.291,-0.387 -13.532,-22.344 -18.076,-34.927 -4.544,-12.583 -9.823,-30.346 -9.823,-30.346 0,0 -51.949,-8.169 -112.425,33.838 -43.404,30.149 -50.906,48.29 -50.906,48.29 l 31.114,61.751 c 0,0 37.361,-36.94 81.214,-60.162 C -57.904,7.326 0,0 0,0" /></g><g
             transform="translate(65.7466,291.1157)"
             id="g524"
             style="stroke-width:6.23630333"><path
               inkscape:connector-curvature="0"
               id="path526"
               style="fill:#8bc751;fill-opacity:1;fill-rule:nonzero;stroke:none;stroke-width:6.23630333"
               d="m 0,0 c 1.792,-4.671 0.211,-9.8 -3.549,-12.708 -3.466,3.911 -5.579,6.858 -6.793,8.74 l 4.985,9.892 C -2.978,4.726 -1.026,2.672 0,0" /></g><g
             transform="translate(89.5845,329.7417)"
             id="g528"
             style="stroke-width:6.23630333"><path
               inkscape:connector-curvature="0"
               id="path530"
               style="fill:#8bc751;fill-opacity:1;fill-rule:nonzero;stroke:none;stroke-width:6.23630333"
               d="m 0,0 c -1.206,-1.363 -2.756,-2.468 -4.572,-3.165 -3.22,-1.235 -6.647,-0.958 -9.503,0.485 L -8.784,7.812 C -6.401,5.632 -3.446,2.981 0,0" /></g><g
             transform="translate(210.7153,226.542)"
             id="g532"
             style="stroke-width:6.23630333"><path
               inkscape:connector-curvature="0"
               id="path534"
               style="fill:#8bc751;fill-opacity:1;fill-rule:nonzero;stroke:none;stroke-width:6.23630333"
               d="m 0,0 c -1.934,-5.892 -3.702,-11.574 -4.846,-15.326 -3.455,-0.197 -8.96,-0.289 -16.063,0.269 0.106,6.365 4.008,12.32 10.305,14.737 C -7.075,1.033 -3.347,1.063 0,0" /></g><g
             transform="translate(227.9624,264.8223)"
             id="g536"
             style="stroke-width:6.23630333"><path
               inkscape:connector-curvature="0"
               id="path538"
               style="fill:#8bc751;fill-opacity:1;fill-rule:nonzero;stroke:none;stroke-width:6.23630333"
               d="m 0,0 c -1.857,-3.269 -3.977,-7.112 -6.026,-11.065 -2.541,1.381 -4.619,3.642 -5.735,6.552 -0.828,2.158 -1.022,4.394 -0.678,6.51 C -7.757,1.2 -3.514,0.526 0,0" /></g><g
             transform="translate(162.1597,263.311)"
             id="g540"
             style="stroke-width:6.23630333"><path
               inkscape:connector-curvature="0"
               id="path542"
               style="fill:#8bc751;fill-opacity:1;fill-rule:nonzero;stroke:none;stroke-width:6.23630333"
               d="m 0,0 c 0.905,-15.211 -6.924,-24.848 -19.953,-31.348 -3.615,-1.816 -7.388,-3.509 -11.354,-4.175 -8.115,3.864 -16.57,8.59 -25.218,14.361 l -0.003,0.008 c -0.827,1.612 -1.606,3.26 -2.491,4.949 -5.199,9.924 -6.623,21.625 -2.757,32.298 4.472,12.343 17.104,20.065 29.786,19.236 l 25.378,-15.347 0.061,-0.041 c 0.12,-0.145 0.236,-0.282 0.347,-0.43 C -1.964,14.104 -0.405,6.841 0,0" /></g><g
             transform="translate(227.9624,264.8223)"
             id="g544"
             style="stroke-width:6.23630333"><path
               inkscape:connector-curvature="0"
               id="path546"
               style="fill:none;stroke:#e5eebb;stroke-width:5.29462194;stroke-linecap:butt;stroke-linejoin:miter;stroke-miterlimit:10;stroke-dasharray:none;stroke-opacity:1"
               d="m 0,0 c -1.857,-3.269 -3.977,-7.112 -6.026,-11.065 -2.95,-5.663 -5.756,-11.535 -7.455,-16.235 -1.249,-3.455 -2.537,-7.261 -3.766,-10.98 -1.934,-5.892 -3.702,-11.574 -4.846,-15.326 -3.455,-0.198 -8.96,-0.29 -16.063,0.269 -14.343,1.148 -35.206,5.016 -58.953,16.303 -8.116,3.864 -16.571,8.59 -25.219,14.361 l -0.003,0.008 c -1.039,0.693 -2.085,1.402 -3.128,2.13 -21.151,14.694 -33.414,26.329 -40.306,34.12 -3.466,3.912 -5.579,6.858 -6.793,8.74 l 4.985,9.892 15.12,30.022 5.291,10.492 c 2.383,-2.179 5.338,-4.83 8.784,-7.812 10.007,-8.652 24.19,-20.124 40.586,-31.102 8.007,-5.361 16.534,-10.606 25.377,-15.346 l 0.061,-0.041 c 0.425,-0.228 0.838,-0.451 1.259,-0.672 C -57.812,10.717 -31.526,5.263 -12.439,1.997 -7.757,1.2 -3.514,0.526 0,0 Z" /></g><g
             transform="translate(124.0918,250.6924)"
             id="g548"
             style="stroke-width:6.23630333"><path
               inkscape:connector-curvature="0"
               id="path550"
               style="fill:#ffffff;fill-opacity:1;fill-rule:nonzero;stroke:none;stroke-width:6.23630333"
               d="m 0,0 -0.236,0.084 c -0.642,0.231 -1.212,0.458 -1.705,0.677 -0.493,0.223 -0.952,0.458 -1.38,0.711 -0.425,0.252 -0.84,0.527 -1.239,0.823 -0.4,0.3 -0.808,0.632 -1.226,1.003 0.263,0.545 0.572,1.077 0.936,1.597 0.364,0.519 0.763,1.053 1.204,1.6 C -2.947,5.868 -2.26,5.362 -1.584,4.977 -0.908,4.592 -0.159,4.25 0.66,3.957 1.889,3.515 2.916,3.383 3.739,3.562 4.563,3.739 5.142,4.296 5.479,5.233 5.646,5.701 5.691,6.119 5.614,6.488 5.537,6.857 5.393,7.189 5.18,7.487 4.969,7.783 4.712,8.062 4.409,8.325 4.107,8.587 3.817,8.856 3.542,9.132 l -1.308,1.229 c -0.547,0.505 -1.027,1.002 -1.448,1.494 -0.417,0.492 -0.74,1.015 -0.971,1.571 -0.23,0.556 -0.346,1.154 -0.348,1.793 -0.002,0.639 0.145,1.368 0.439,2.188 0.63,1.756 1.625,2.962 2.985,3.619 1.359,0.657 2.954,0.778 4.788,0.361 l 1.113,3.102 c 0.452,-0.03 0.892,-0.122 1.321,-0.276 0.409,-0.147 0.817,-0.359 1.225,-0.638 l -1.082,-3.013 c 0.758,-0.338 1.47,-0.722 2.132,-1.146 0.661,-0.425 1.342,-0.916 2.044,-1.478 -0.522,-1.089 -1.234,-2.089 -2.133,-2.999 -0.251,0.223 -0.507,0.446 -0.767,0.672 -0.26,0.225 -0.547,0.439 -0.859,0.639 -0.315,0.201 -0.676,0.402 -1.087,0.604 C 9.173,17.058 8.693,17.257 8.148,17.453 7.817,17.572 7.47,17.669 7.112,17.743 6.754,17.816 6.41,17.824 6.081,17.767 5.75,17.708 5.448,17.569 5.17,17.35 4.895,17.129 4.675,16.795 4.514,16.346 4.374,15.956 4.324,15.6 4.362,15.279 4.399,14.956 4.503,14.661 4.67,14.391 4.839,14.121 5.043,13.866 5.287,13.625 5.531,13.383 5.778,13.152 6.029,12.929 L 7.521,11.568 C 8.15,10.99 8.711,10.435 9.204,9.906 9.697,9.377 10.074,8.818 10.336,8.228 10.598,7.64 10.731,6.985 10.739,6.268 10.745,5.549 10.576,4.712 10.233,3.757 9.659,2.157 8.721,0.968 7.418,0.191 6.116,-0.583 4.526,-0.856 2.65,-0.624 L 1.432,-4.017 c -0.452,0.031 -0.895,0.122 -1.323,0.277 -0.429,0.153 -0.836,0.367 -1.223,0.637 z" /></g><g
             transform="translate(107.2124,328.3325)"
             id="g552"
             style="stroke-width:6.23630333"><path
               inkscape:connector-curvature="0"
               id="path554"
               style="fill:#fdd5ae;fill-opacity:1;fill-rule:nonzero;stroke:none;stroke-width:6.23630333"
               d="m 0,0 c 0.945,-1.613 2.237,-2.988 3.524,-4.608 2.356,-2.968 4.389,-6.384 6.2,-9.707 3.392,-6.226 8.694,-11.12 15.25,-13.934 4.235,-1.818 8.744,-3.21 12.4,-6.018 5.542,-4.257 10.997,-12.877 10.187,-19.984 -0.375,-3.295 -0.975,-8.1 -5.527,-7.911 -3.252,0.135 -5.124,3.608 -7.567,5.759 -4.648,4.09 -11.609,3.382 -17.758,4.111 -8.62,1.022 -16.395,5.247 -23.606,9.839 -3.187,2.029 -6.221,2.691 -9.54,4.269 -4.072,1.936 -7.821,4.588 -11.774,6.754 -12.291,6.734 -25.128,10.736 -36.627,19.297 -2.085,1.552 -4.157,3.207 -5.607,5.364 -1.45,2.158 -2.211,4.919 -1.442,7.403 0.788,2.541 2.983,4.356 5.117,5.945 10.578,7.872 24.791,17.562 38.76,14.722 3.432,-0.698 6.97,-1.594 10.358,-2.51 3.487,-0.943 6.863,-2.3 10.03,-4.039 2.381,-1.307 4.796,-3.016 5.658,-5.592 C -1.417,7.523 -1.572,5.745 -1.368,4.03 -1.179,2.444 -0.679,1.16 0,0" /></g><g
             transform="translate(146.2871,268.6357)"
             id="g556"
             style="stroke-width:6.23630333"><path
               inkscape:connector-curvature="0"
               id="path558"
               style="fill:#ffeed7;fill-opacity:1;fill-rule:nonzero;stroke:none;stroke-width:6.23630333"
               d="M 0,0 C 2.821,0.048 5.277,2.849 4.956,5.652 4.687,8.001 2.096,10.49 -0.378,10.217 -2.809,9.948 -4.691,6.721 -6.511,5.333 -4.541,3.398 -2.161,1.744 0,0" /></g><g
             transform="translate(93.4517,298.729)"
             id="g560"
             style="stroke-width:6.23630333"><path
               inkscape:connector-curvature="0"
               id="path562"
               style="fill:#fbba84;fill-opacity:1;fill-rule:nonzero;stroke:none;stroke-width:6.23630333"
               d="m 0,0 c 0.096,0.45 -0.559,0.705 -0.697,0.238 -0.2,-0.673 -0.403,-1.346 -0.582,-2.026 -0.162,-0.614 -0.398,-1.251 -0.398,-1.89 -10e-4,-0.319 0.469,-0.566 0.654,-0.226 C -0.413,-2.777 -0.265,-1.246 0,0" /></g><g
             transform="translate(129.9683,293.5083)"
             id="g564"
             style="stroke-width:6.23630333"><path
               inkscape:connector-curvature="0"
               id="path566"
               style="fill:#fbba84;fill-opacity:1;fill-rule:nonzero;stroke:none;stroke-width:6.23630333"
               d="m 0,0 c -1.8,-2.304 -2.909,-5.17 -3.625,-7.986 -0.623,-2.45 -1.476,-6.266 -0.366,-8.651 0.03,-0.065 0.146,-0.089 0.172,-0.005 0.355,1.171 0.21,2.391 0.296,3.61 0.1,1.433 0.306,2.856 0.626,4.257 0.695,3.052 2.039,5.68 3.437,8.446 C 0.704,-0.004 0.222,0.283 0,0" /></g><g
             transform="translate(124.5137,291.1138)"
             id="g568"
             style="stroke-width:6.23630333"><path
               inkscape:connector-curvature="0"
               id="path570"
               style="fill:#fbba84;fill-opacity:1;fill-rule:nonzero;stroke:none;stroke-width:6.23630333"
               d="m 0,0 c -0.968,-1.285 -1.518,-2.899 -1.927,-4.443 -0.375,-1.415 -0.924,-3.307 -0.425,-4.736 0.048,-0.135 0.244,-0.133 0.301,-0.008 0.565,1.243 0.502,2.8 0.845,4.13 0.428,1.651 1.166,3.145 1.712,4.748 C 0.609,-0.006 0.218,0.289 0,0" /></g><g
             transform="translate(118.9429,287.9868)"
             id="g572"
             style="stroke-width:6.23630333"><path
               inkscape:connector-curvature="0"
               id="path574"
               style="fill:#fbba84;fill-opacity:1;fill-rule:nonzero;stroke:none;stroke-width:6.23630333"
               d="m 0,0 c -0.529,-0.655 -0.883,-1.676 -0.734,-2.521 0.046,-0.258 0.393,-0.337 0.513,-0.083 0.18,0.382 0.246,0.815 0.372,1.217 0.122,0.39 0.206,0.798 0.259,1.204 C 0.44,0.044 0.149,0.185 0,0" /></g><g
             transform="translate(99.8779,300.5776)"
             id="g576"
             style="stroke-width:6.23630333"><path
               inkscape:connector-curvature="0"
               id="path578"
               style="fill:#fbba84;fill-opacity:1;fill-rule:nonzero;stroke:none;stroke-width:6.23630333"
               d="m 0,0 c -1.528,-2.621 -2.752,-5.852 -3.19,-8.867 -0.056,-0.379 0.504,-0.568 0.655,-0.196 1.162,2.85 2.173,5.872 3.129,8.798 C 0.725,0.136 0.211,0.363 0,0" /></g><g
             transform="translate(91.2661,317.4248)"
             id="g580"
             style="stroke-width:6.23630333"><path
               inkscape:connector-curvature="0"
               id="path582"
               style="fill:#fbba84;fill-opacity:1;fill-rule:nonzero;stroke:none;stroke-width:6.23630333"
               d="m 0,0 c -2.545,-2.227 -4.609,-4.976 -6.297,-7.895 -1.265,-2.187 -3.478,-5.52 -2.519,-8.165 0.041,-0.111 0.192,-0.082 0.217,0.022 1.406,5.98 5.245,10.892 9.014,15.606 C 0.622,-0.173 0.265,0.231 0,0" /></g></g></g></g></g></svg>